<?xml version="1.0" standalone="no"?>
<!DOCTYPE svg PUBLIC "-//W3C//DTD SVG 20010904//EN"
 "http://www.w3.org/TR/2001/REC-SVG-20010904/DTD/svg10.dtd">
<svg version="1.0" xmlns="http://www.w3.org/2000/svg"
 width="1000.000000pt" height="1000.000000pt" viewBox="0 0 1000.000000 1000.000000"
 preserveAspectRatio="xMidYMid meet">
<metadata>
Created by potrace 1.11, written by Peter Selinger 2001-2013
</metadata>
<g transform="translate(0.000000,1000.000000) scale(0.100000,-0.100000)"
fill="#000000" stroke="none">
<path d="M471 9980 c-97 -26 -163 -57 -237 -113 -148 -112 -234 -296 -234
-499 0 -84 876 -7761 901 -7893 76 -407 458 -776 874 -844 106 -17 7502 -631
7603 -631 275 0 492 152 587 410 57 156 79 -95 -354 3950 -241 2253 -398 3676
-410 3725 -69 293 -298 577 -576 717 -136 69 -25 51 -4043 638 -4154 606
-3955 580 -4111 540z m4839 -4548 c0 -1098 -2 -1068 60 -1127 26 -25 38 -29
84 -29 36 1 69 10 106 28 29 15 54 25 56 24 1 -2 21 -70 44 -152 46 -168 50
-153 -45 -203 -78 -41 -152 -62 -252 -74 -196 -23 -332 33 -400 166 -60 116
-57 51 -60 1258 l-4 1107 206 0 205 0 0 -998z m880 333 l0 -225 260 0 260 0 0
-190 0 -190 -261 0 -260 0 3 -363 3 -363 30 -59 c23 -46 40 -64 74 -82 76 -40
186 -26 283 36 26 17 49 27 52 23 8 -14 116 -294 116 -303 0 -4 -30 -26 -67
-48 -184 -108 -438 -137 -617 -71 -69 26 -161 108 -198 177 -37 67 -66 181
-78 299 -5 54 -10 433 -10 842 l0 742 205 0 205 0 0 -225z m-1980 -216 c202
-51 315 -164 377 -374 15 -54 18 -123 21 -652 l3 -593 -176 0 -175 0 0 95 0
95 -39 -43 c-92 -99 -245 -158 -421 -160 -124 -2 -189 12 -283 61 -138 71
-220 205 -234 382 -17 220 81 407 259 494 106 52 184 69 313 69 146 0 217 -18
369 -91 12 -6 1 184 -13 230 -18 57 -71 119 -126 147 -45 24 -60 26 -170 26
-133 -1 -215 -19 -338 -74 -48 -22 -69 -27 -72 -18 -79 223 -95 273 -91 283 6
17 167 82 273 110 173 46 370 51 523 13z m4619 -3740 c90 -14 154 -44 199 -93
46 -50 65 -99 66 -176 2 -92 -20 -147 -83 -211 -71 -71 -131 -93 -253 -94
l-88 0 0 -152 0 -153 -100 0 -100 0 0 439 0 440 33 4 c69 8 265 6 326 -4z
m-1128 -178 c70 -95 132 -178 137 -183 6 -6 56 57 138 176 l128 186 93 0 93 0
0 -440 0 -440 -100 0 -100 0 -2 279 -3 279 -120 -169 c-66 -93 -127 -168 -135
-168 -8 0 -64 70 -125 155 -60 85 -116 160 -122 166 -10 8 -13 -46 -13 -266
l0 -276 -100 0 -100 0 0 440 0 441 102 -3 101 -3 128 -174z"/>
<path d="M3841 4639 c-52 -16 -105 -56 -129 -98 -43 -76 -20 -192 47 -240 16
-12 57 -28 90 -37 113 -28 248 6 335 86 l46 43 0 93 0 94 -40 20 c-89 46 -259
64 -349 39z"/>
<path d="M8670 1525 l0 -105 75 0 c68 0 77 2 107 29 29 26 33 35 33 81 0 44
-4 55 -28 76 -25 21 -38 24 -108 24 l-79 0 0 -105z"/>
</g>
</svg>
